<?xml version="1.0" encoding="iso-8859-1"?>
<!-- Generator: Adobe Illustrator 19.0.0, SVG Export Plug-In . SVG Version: 6.00 Build 0)  -->
<svg version="1.1" id="Layer_1" xmlns="http://www.w3.org/2000/svg" xmlns:xlink="http://www.w3.org/1999/xlink" x="0px" y="0px"
	 viewBox="0 0 512 512" style="enable-background:new 0 0 512 512;" xml:space="preserve">
<g>
	<g>
		<path d="M462.927,172.416c-19.461,0-29.274,7.068-35.769,11.746c-1.398,1.007-4.001,2.881-4.596,2.881
			c-0.595,0-3.197-1.875-4.596-2.881c-6.494-4.677-16.308-11.746-35.769-11.746c-14.869,0-28.204,6.266-37.211,16.129
			c-9.369-13.955-25.905-23.25-44.717-23.25c-21.033,0-31.644,7.643-38.665,12.7c-2.281,1.644-4.641,3.343-5.605,3.343
			s-3.324-1.699-5.605-3.343c-7.021-5.058-17.632-12.7-38.665-12.7c-18.812,0-35.348,9.296-44.717,23.25
			c-9.007-9.864-22.342-16.129-37.211-16.129c-19.461,0-29.274,7.068-35.769,11.746c-1.398,1.007-4.001,2.881-4.596,2.881
			c-0.595,0-3.197-1.875-4.596-2.881c-6.494-4.677-16.308-11.746-35.769-11.746C22.015,172.416,0,193.139,0,218.61
			c0,11.753,1.461,22.448,19.845,43.897c6.003,7.005,9.334,22.089,12.271,35.398c2.068,9.368,4.022,18.217,6.964,25.275
			c4.537,10.884,11.283,16.403,20.051,16.403c17.121,0,22.848-19.082,27.449-34.415c0.81-2.696,1.825-6.082,2.857-9.021
			c1.032,2.94,2.048,6.325,2.857,9.021c4.602,15.333,10.328,34.415,27.449,34.415c8.768,0,15.514-5.519,20.051-16.403
			c2.941-7.058,4.896-15.907,6.964-25.275c2.938-13.309,6.269-28.394,12.271-35.398c4.471-5.217,7.935-9.793,10.626-13.908
			c2.802,4.153,6.322,8.74,10.75,13.908c6.742,7.867,10.423,24.538,13.67,39.246c4.879,22.1,9.924,44.952,28.683,44.952
			c18.059,0,24.225-20.547,29.18-37.056c1.129-3.762,2.614-8.711,4.061-12.408c1.446,3.697,2.932,8.646,4.061,12.408
			c4.955,16.509,11.121,37.056,29.18,37.056c18.759,0,23.804-22.852,28.683-44.952c3.247-14.708,6.928-31.379,13.67-39.246
			c4.429-5.168,7.948-9.755,10.75-13.908c2.692,4.115,6.155,8.691,10.626,13.908c6.003,7.005,9.334,22.089,12.271,35.398
			c2.068,9.368,4.022,18.217,6.964,25.275c4.537,10.884,11.283,16.403,20.051,16.403c17.121,0,22.848-19.082,27.449-34.415
			c0.81-2.696,1.825-6.082,2.857-9.021c1.032,2.94,2.048,6.325,2.857,9.021c4.602,15.333,10.328,34.415,27.449,34.415
			c8.768,0,15.514-5.519,20.051-16.403c2.941-7.058,4.896-15.907,6.964-25.275c2.938-13.309,6.269-28.394,12.271-35.398
			C510.539,241.058,512,230.363,512,218.61C512,193.139,489.985,172.416,462.927,172.416z M143.845,249.493
			c-9.267,10.812-13.003,27.735-16.616,44.102c-1.836,8.316-4.823,21.846-7.777,25.602c-2.909-2.811-6.309-14.138-8.001-19.776
			c-1.809-6.028-3.518-11.722-5.817-16.429c-4.912-10.054-11.519-12.164-16.195-12.164c-4.676,0-11.283,2.11-16.195,12.164
			c-2.3,4.707-4.009,10.401-5.817,16.429c-1.692,5.639-5.092,16.965-8.001,19.776c-2.954-3.756-5.941-17.286-7.777-25.602
			c-3.613-16.367-7.35-33.29-16.616-44.102c-0.804-0.938-1.556-1.836-2.276-2.709h30.684v5.434c0,5.523,4.478,10,10,10h32
			c5.522,0,10-4.477,10-10v-5.999h31.15C145.733,247.263,144.822,248.352,143.845,249.493z M83.438,242.217v-12h12v12H83.438z
			 M158.277,226.218h-42.84v-6.001c0-5.523-4.478-10-10-10h-32c-5.522,0-10,4.477-10,10v6.566H20.732
			C20.003,223.841,20,221.328,20,218.61c0-14.443,13.042-26.194,29.073-26.194c13.009,0,18.637,4.054,24.08,7.974
			c4.329,3.119,9.236,6.653,16.284,6.653c7.048,0,11.955-3.534,16.284-6.653c5.443-3.92,11.071-7.974,24.08-7.974
			c16.031,0,29.073,11.75,29.073,26.194C158.875,221.153,158.874,223.515,158.277,226.218z M316.407,249.493
			c-10.005,11.674-14.077,30.115-18.014,47.949c-1.743,7.895-3.39,15.351-5.376,21.143c-1.889,5.507-3.397,7.428-3.995,8.022
			c-0.478-0.314-1.901-1.528-3.867-5.667c-2.239-4.714-4.12-10.98-5.938-17.04c-4.525-15.078-9.204-30.67-23.217-30.67
			s-18.691,15.592-23.217,30.67c-1.818,6.06-3.699,12.326-5.938,17.04c-1.947,4.1-3.363,5.33-3.876,5.658
			c-0.604-0.605-2.106-2.534-3.986-8.013c-1.986-5.792-3.633-13.249-5.376-21.143c-3.937-17.834-8.009-36.275-18.014-47.949
			c-0.973-1.135-1.883-2.223-2.745-3.275H230v5.999c0,5.523,4.478,10,10,10h32c5.522,0,10-4.477,10-10v-5.434h36.685
			C317.959,247.661,317.208,248.558,316.407,249.493z M250,242.217v-12h12v12H250z M331.475,226.783H282v-6.566
			c0-5.523-4.478-10-10-10h-32c-5.522,0-10,4.477-10,10v6.001h-49.672c-1.45-4.316-1.453-7.665-1.453-11.227
			c0-16.375,14.738-29.696,32.854-29.696c14.58,0,20.882,4.539,26.976,8.929c4.63,3.334,9.877,7.114,17.295,7.114
			c7.418,0,12.665-3.78,17.295-7.114c6.094-4.39,12.396-8.929,26.976-8.929c18.116,0,32.854,13.322,32.854,29.696
			C333.125,218.707,333.121,222.191,331.475,226.783z M476.974,249.492c-9.271,10.812-13.007,27.736-16.62,44.102
			c-1.836,8.316-4.823,21.846-7.777,25.602c-2.909-2.811-6.309-14.138-8.001-19.776c-1.809-6.028-3.518-11.722-5.817-16.429
			c-4.912-10.054-11.519-12.164-16.195-12.164c-4.676,0-11.283,2.11-16.195,12.164c-2.3,4.707-4.009,10.401-5.817,16.429
			c-1.692,5.639-5.092,16.965-8.001,19.776c-2.954-3.756-5.941-17.286-7.777-25.602c-3.613-16.367-7.35-33.29-16.616-44.102
			c-0.804-0.938-1.556-1.836-2.276-2.709h30.684v5.434c0,5.523,4.478,10,10,10h32c5.522,0,10-4.477,10-10v-5.434h30.684
			C478.53,247.656,477.777,248.554,476.974,249.492z M416.563,242.217v-12h12v12H416.563z M491.267,226.783h-42.706v-6.566
			c0-5.523-4.478-10-10-10h-32c-5.522,0-10,4.477-10,10v6.566h-42.704c-0.729-2.942-0.732-5.455-0.732-8.173
			c0-14.443,13.042-26.194,29.073-26.194c13.009,0,18.637,4.054,24.08,7.974c4.329,3.119,9.236,6.653,16.284,6.653
			c7.048,0,11.955-3.534,16.284-6.653c5.443-3.92,11.071-7.974,24.08-7.974c16.031,0,29.073,11.75,29.073,26.194
			C491.999,221.329,491.996,223.841,491.267,226.783z"/>
	</g>
</g>
<g>
</g>
<g>
</g>
<g>
</g>
<g>
</g>
<g>
</g>
<g>
</g>
<g>
</g>
<g>
</g>
<g>
</g>
<g>
</g>
<g>
</g>
<g>
</g>
<g>
</g>
<g>
</g>
<g>
</g>
</svg>
