<svg id="icons" enable-background="new 0 0 64 64" height="512" viewBox="0 0 64 64" width="512" xmlns="http://www.w3.org/2000/svg"><path d="m62.998 45.502h-8.14c-.447-1.721-2-3-3.858-3h-2.08c1.968-2.188 3.082-5.016 3.082-8.006 0-.553-.447-1-1-1h-5.003v-1.994c0-3.305-2.685-5.992-5.987-5.999-.004 0-.008-.003-.013-.003h-15.995c-3.31 0-6.002 2.692-6.002 6.002v1.994h-5c-.553 0-1 .447-1 1 0 2.99 1.114 5.818 3.08 8.006h-2.082c-1.858 0-3.411 1.279-3.858 3h-8.14c-.553 0-1 .447-1 1s.447 1 1 1h8.998c.553 0 1-.447 1-1 0-1.103.897-2 2-2h3.166l1.841 16.111c.006.055.032.101.047.151.015.056.024.11.049.16.032.067.076.123.121.181.031.04.057.083.094.118.058.055.127.093.196.133.039.021.071.052.112.068.116.047.241.075.373.075h.001 4.001c3.309 0 6-2.691 6-6v-3.987c0-.002.001-.003.001-.005 0-1.654 1.346-3 3-3 1.651 0 2.995 1.342 2.999 2.992 0 .002-.001.004-.001.006v3.995c0 3.309 2.691 6 6 6h4.001.001c.131 0 .257-.028.373-.075.041-.017.074-.047.112-.068.069-.04.139-.078.196-.133.037-.035.063-.078.094-.119.045-.057.089-.112.121-.179.023-.051.034-.106.049-.161.015-.051.041-.097.047-.151l1.841-16.111h3.165c1.103 0 2 .897 2 2 0 .553.447 1 1 1h8.998c.553 0 1-.447 1-1s-.447-1.001-1-1.001zm-42.996-14c0-2.207 1.795-4.002 4.002-4.002h15.985c.003 0 .007.002.01.002 2.206 0 4 1.794 4 4v1.994h-23.997zm16.998 23.998v-3.982c0-.004.002-.006.002-.01 0-2.757-2.243-5-5-5-2.752 0-4.991 2.236-4.998 4.986-.001.004-.003.008-.003.012v3.994c0 2.206-1.794 4-4 4h-3.109l-1.898-16.613c0-.001 0-.001 0-.002l-.002-.018c-.005-.04-.026-.071-.036-.109-.02-.087-.038-.174-.082-.254-.043-.079-.105-.143-.167-.206-.026-.028-.041-.063-.071-.088-2.049-1.694-3.317-4.101-3.578-6.714h4.926c.007 0 .013.004.02.004s.013-.004.02-.004h30.926c-.262 2.614-1.532 5.022-3.586 6.717-.044.036-.066.085-.103.126-.045.053-.097.099-.13.161-.072.128-.113.268-.124.412l-1.898 16.588h-3.109c-2.206 0-4-1.794-4-4z"/><path d="m40 2.5c-2.992 0-5.797 1.083-8 3.068-2.203-1.985-5.008-3.068-8-3.068-6.617 0-12 5.382-12 11.998v5.002c0 .553.447 1 1 1h38c.553 0 1-.447 1-1v-5.002c0-6.616-5.383-11.998-12-11.998zm10 16h-36v-4.002c0-5.513 4.486-9.998 10-9.998 2.775 0 5.358 1.119 7.271 3.152.379.4 1.078.4 1.457 0 1.914-2.033 4.497-3.152 7.272-3.152 5.514 0 10 4.485 10 9.998z"/><path d="m50 22.498c-.553 0-1 .447-1 1v4.588l-.254-.254c-.391-.391-1.023-.391-1.414 0s-.391 1.023 0 1.414l1.96 1.96c.092.093.203.166.326.217.122.051.252.077.382.077s.26-.026.382-.077c.123-.051.234-.124.326-.217l1.921-1.921c.391-.391.391-1.023 0-1.414s-1.023-.391-1.414 0l-.215.215v-4.588c0-.553-.447-1-1-1z"/><path d="m11.352 29.246 1.96 1.96c.092.093.203.166.326.217.122.051.252.077.382.077s.26-.026.382-.077c.123-.051.234-.124.326-.217l1.921-1.921c.391-.391.391-1.023 0-1.414s-1.023-.391-1.414 0l-.215.215v-4.588c0-.553-.447-1-1-1s-1 .447-1 1v4.588l-.254-.254c-.391-.391-1.023-.391-1.414 0s-.391 1.023 0 1.414z"/></svg>