<svg height="496pt" viewBox="-4 0 496 496.008" width="496pt" xmlns="http://www.w3.org/2000/svg"><path d="m368.003906 136h16c0-57.34375-39.480468-104-88-104v16c39.695313 0 72 39.480469 72 88zm0 0"/><path d="m137.570312 48.160156-40-8c-1.75-.359375-3.558593-.113281-5.148437.6875l-32 16c-1.546875.769532-2.800781 2.023438-3.578125 3.578125l-24 48c-.792969 1.589844-1.039062 3.398438-.6875 5.148438l8 40c.542969 2.738281 2.480469 4.992187 5.105469 5.945312.894531.320313 1.824219.480469 2.742187.480469 1.792969 0 3.558594-.601562 5-1.753906l39.070313-31.253906 38.90625-15.558594c2.589843-1.042969 4.457031-3.355469 4.917969-6.113282l8-48c.707031-4.265624-2.085938-8.320312-6.328126-9.160156zm-16.71875 50.078125-35.824218 14.328125c-.726563.296875-1.40625.691406-2.023438 1.1875l-29.734375 23.789063-4.882812-24.421875 21.578125-43.160156 27.160156-13.578126 29.710938 5.945313zm0 0"/><path d="m485.660156 226.34375-26.746094-26.742188c-13.597656-13.601562-29.269531-24.320312-46.191406-32.234374 2.136719-10.238282 3.28125-20.75 3.28125-31.367188 0-74.992188-53.832031-136-120-136-33.761718 0-65.304687 15.777344-88 43.65625-22.695312-27.878906-54.238281-43.65625-88-43.65625-66.167968 0-119.99999975 61.007812-119.99999975 136 0 49.96875 23.79296875 95.238281 62.35937475 119.175781l2.96875 21.769531c9.9375 72.871094 34.511719 141.574219 73.054688 204.199219 5.136719 8.34375 13.441406 13.847657 22.21875 14.71875 8.054687.808594 16.0625-1.847656 22.023437-7.246093 5.960938-5.410157 9.375-13.113282 9.375-21.144532v-130.113281c0-9.121094 6.785156-16.894531 15.128906-17.335937 4.472657-.253907 8.664063 1.320312 11.878907 4.367187 3.214843 3.050781 4.992187 7.175781 4.992187 11.609375v130.191406c0 13.664063 8.664063 25.519532 21.082032 28.824219 2.503906.664063 5.023437.992187 7.511718.992187 9.75 0 18.925782-4.96875 24.222656-13.574218l.800782-1.289063c32.152344-52.257812 54.589844-109.160156 66.957031-169.175781 43.195313-.152344 83.785156-17.007812 114.335937-47.570312l26.746094-26.742188c3.128906-3.128906 3.128906-8.183594 0-11.3125zm-77.65625 5.65625c0 35.289062-28.710937 64-64 64-35.289062 0-64-28.710938-64-64s28.710938-64 64-64c35.289063 0 64 28.710938 64 64zm-126.390625 49.945312c-15.089843-7.121093-29.058593-16.707031-41.203125-28.847656l-21.09375-21.097656 21.085938-21.089844c12.144531-12.140625 26.121094-21.734375 41.203125-28.847656-10.984375 13.699219-17.601563 31.050781-17.601563 49.9375s6.617188 36.238281 17.609375 49.945312zm-17.609375 190.808594-.800781 1.285156c-2.925781 4.753907-8.535156 6.976563-14 5.519532-5.335937-1.414063-9.199219-7.039063-9.199219-13.367188v-130.191406c0-8.734375-3.640625-17.199219-9.976562-23.214844-6.429688-6.105468-14.871094-9.183594-23.726563-8.738281-16.992187.890625-30.296875 15.519531-30.296875 33.3125v130.113281c0 3.574219-1.464844 6.878906-4.121094 9.289063-2.65625 2.40625-6.085937 3.550781-9.703124 3.175781-3.832032-.378906-7.632813-3.066406-10.167969-7.175781-37.367188-60.722657-61.199219-127.328125-70.832031-197.984375l-3.488282-25.578125c-.335937-2.457031-1.792968-4.613281-3.933594-5.847657-35.625-20.496093-57.753906-61.632812-57.753906-107.351562 0-66.167969 46.65625-120 104-120 31.824219 0 61.496094 16.59375 81.40625 45.519531 2.984375 4.335938 10.195313 4.335938 13.179688 0 19.917968-28.925781 49.589844-45.519531 81.414062-45.519531 57.34375 0 104 53.832031 104 120 0 8.527344-.792968 16.976562-2.328125 25.230469-17.039062-5.949219-35.085937-9.230469-53.671875-9.230469-43.40625 0-84.214844 16.902344-114.910156 47.601562l-26.746094 26.742188c-3.128906 3.128906-3.128906 8.183594 0 11.3125l26.746094 26.742188c26.972656 26.976562 61.773438 43.28125 99.269531 46.839843-12.085937 57.265625-33.648437 111.585938-64.359375 161.515625zm183.601563-219.664062c-12.144531 12.140625-26.121094 21.734375-41.203125 28.847656 10.984375-13.699219 17.601562-31.050781 17.601562-49.9375s-6.617187-36.238281-17.609375-49.945312c15.089844 7.121093 29.058594 16.707031 41.203125 28.847656l21.09375 21.097656zm0 0"/><path d="m344.003906 280c26.472656 0 48-21.527344 48-48s-21.527344-48-48-48-48 21.527344-48 48 21.527344 48 48 48zm0-80c17.648438 0 32 14.351562 32 32s-14.351562 32-32 32c-17.648437 0-32-14.351562-32-32s14.351563-32 32-32zm0 0"/><path d="m288.003906 128h16v16h-16zm0 0"/><path d="m288.003906 96h16v16h-16zm0 0"/><path d="m256.003906 96h16v16h-16zm0 0"/><path d="m224.003906 96h16v16h-16zm0 0"/><path d="m192.003906 96h16v16h-16zm0 0"/><path d="m160.003906 96h16v16h-16zm0 0"/></svg>