<?xml version="1.0" encoding="iso-8859-1"?>
<!-- Generator: Adobe Illustrator 19.0.0, SVG Export Plug-In . SVG Version: 6.00 Build 0)  -->
<svg version="1.1" id="Capa_1" xmlns="http://www.w3.org/2000/svg" xmlns:xlink="http://www.w3.org/1999/xlink" x="0px" y="0px"
	 viewBox="0 0 496 496" style="enable-background:new 0 0 496 496;" xml:space="preserve">
<g>
	<g>
		<path d="M346.424,419.288C344.184,408.112,334.288,400,322.88,400h-6.232C323.976,383.872,328,366.216,328,348.496v-3.912
			C328,322.2,309.792,304,287.408,304c-10.36,0-20.168,3.856-27.608,10.864c-7.232,6.816-16.368,6.808-23.6,0.008
			C228.76,307.856,218.952,304,208.592,304C186.208,304,168,322.2,168,344.584v3.912c0,17.712,4.024,35.376,11.352,51.504h-6.232
			c-11.4,0-21.304,8.112-23.536,19.288L134.24,496h227.52L346.424,419.288z M184,344.584C184,331.032,195.032,320,208.592,320
			c6.264,0,12.176,2.312,16.64,6.52c13.176,12.392,32.36,12.4,45.536-0.008c4.464-4.2,10.376-6.512,16.64-6.512
			c13.56,0,24.592,11.032,24.592,24.584v3.912c0,16.76-3.96,33.528-11.456,48.512c-2.624,5.248-4.896,10.744-6.752,16.304
			l-10,29.992c-0.928,2.816-3.544,4.696-6.496,4.696c-3.496,0-6.424-2.616-6.816-6.096l-5.648-50.832
			C263.88,382.48,256.64,376,248,376s-15.88,6.48-16.832,15.072l-5.648,50.832c-0.384,3.48-3.32,6.096-6.816,6.096
			c-2.952,0-5.568-1.88-6.504-4.688l-10-29.992c-1.856-5.56-4.128-11.056-6.752-16.304C187.96,382.032,184,365.256,184,348.496
			V344.584z M153.76,480l11.512-57.568c0.744-3.728,4.048-6.432,7.848-6.432h13.024c0.288,0.8,0.624,1.584,0.888,2.384l10,29.992
			c3.12,9.344,11.832,15.624,21.68,15.624c11.664,0,21.424-8.744,22.712-20.328l5.648-50.832c0.112-0.952,1.76-0.952,1.864,0
			l5.648,50.832c1.28,11.584,11.048,20.328,22.712,20.328c9.848,0,18.56-6.28,21.68-15.624l10-29.992
			c0.264-0.8,0.6-1.584,0.888-2.384h13.024c3.8,0,7.104,2.704,7.848,6.432L342.24,480H153.76z"/>
	</g>
</g>
<g>
	<g>
		<path d="M320.248,228.824c8.256-10.344,13.744-22.984,15.28-36.824H344V0h-64v192h6.528c-3.312,9.288-12.112,16-22.528,16h-16h-16
			c-10.416,0-19.216-6.712-22.528-16H216V0h-64v192h8.496c1.504,13.504,6.816,26.288,15.336,36.936
			C137.56,253.024,112,295.536,112,344v40h48v-40c0-48.52,39.48-88,88-88s88,39.48,88,88v40h48v-40
			C384,297.072,359.736,253.624,320.248,228.824z M206.472,214.536c-5.8,1.864-11.376,4.2-16.816,6.8l0.336-0.296
			c-7.24-8.216-11.816-18.32-13.36-29.04h16.176C194.648,201.032,199.656,208.832,206.472,214.536z M168,16h32v40h-32V16z M168,72
			h32v16h-32V72z M168,104h32v16h-32V104z M168,176v-40h32v40H168z M144,344v24h-16v-24c0-58.216,41.68-106.84,96.76-117.696
			c-0.456,1.832-0.76,3.72-0.76,5.696c0,3.696,0.912,7.16,2.408,10.288C179.392,252.256,144,294.064,144,344z M248,240
			c-4.408,0-8-3.584-8-8s3.592-8,8-8s8,3.584,8,8S252.408,240,248,240z M296,16h32v40h-32V16z M296,72h32v16h-32V72z M296,104h32v16
			h-32V104z M296,136h32v40h-32V136z M270.328,223.36c16.416-2.64,29.56-15.168,32.864-31.36h16.168
			c-3.592,24.92-23.592,44.568-48.696,47.568c0.8-2.392,1.336-4.912,1.336-7.568C272,228.944,271.368,226.048,270.328,223.36z
			 M368,368h-16v-24c0-41.432-24.408-77.176-59.552-93.88c5.816-2.512,11.208-5.792,16.112-9.672
			C345.272,261.968,368,301.352,368,344V368z"/>
	</g>
</g>
<g>
</g>
<g>
</g>
<g>
</g>
<g>
</g>
<g>
</g>
<g>
</g>
<g>
</g>
<g>
</g>
<g>
</g>
<g>
</g>
<g>
</g>
<g>
</g>
<g>
</g>
<g>
</g>
<g>
</g>
</svg>
