<svg id="Capa_1" enable-background="new 0 0 289.281 289.281" height="512" viewBox="0 0 289.281 289.281" width="512" xmlns="http://www.w3.org/2000/svg"><path d="m101.96 56.908c-2.618 0-4.742-2.125-4.742-4.742 0-2.618 2.125-4.742 4.742-4.742 13.71 0 32.826-19.311 39.039-26.751 1.679-2.011 4.666-2.281 6.677-.602s2.281 4.662.607 6.677c-2.571 3.086-25.727 30.16-46.323 30.16z"/><path d="m225.26 147.012h-161.239c-2.219 0-4.14-1.541-4.628-3.704-.977-4.358-3.903-8.911-6.634-12.795-.939-1.333-1.84-2.665-2.703-4.003-12.581-19.372-19.23-42.558-19.23-67.037v-12.05c-.001-37.512 40.328-47.423 61.649-47.423 27.017 0 45.071 11.794 52.165 17.442 7.095-5.648 25.149-17.442 52.166-17.442 21.321 0 61.65 9.911 61.65 47.423v12.05c0 24.48-6.649 47.665-19.23 67.042-.863 1.333-1.764 2.665-2.703 3.998-2.732 3.879-5.658 8.437-6.634 12.795-.489 2.162-2.41 3.704-4.629 3.704zm-157.72-9.485h154.206c1.698-4.567 4.444-8.806 7.028-12.472.868-1.233 1.702-2.466 2.499-3.694 11.576-17.845 17.698-39.243 17.698-61.887v-12.05c0-37.403-50.041-37.934-52.17-37.939-30.669 0-48.637 17.414-48.817 17.589-1.854 1.835-4.851 1.835-6.696-.009-.171-.166-18.139-17.58-48.813-17.58-2.124.004-52.165.536-52.165 37.938v12.05c0 22.645 6.122 44.042 17.698 61.878.806 1.238 1.636 2.471 2.504 3.704 2.584 3.67 5.326 7.905 7.028 12.472z"/><path d="m211.033 165.981h-132.785c-2.618 0-4.742-2.125-4.742-4.742v-18.969c0-2.618 2.125-4.742 4.742-4.742h132.785c2.618 0 4.742 2.125 4.742 4.742v18.969c0 2.617-2.124 4.742-4.742 4.742zm-128.043-9.485h123.3v-9.485h-123.3z"/><path d="m158.867 289.281h-28.454c-1.797 0-3.438-1.015-4.244-2.623l-14.227-28.454c-.327-.654-.498-1.385-.498-2.12v-94.846c0-2.618 2.125-4.742 4.742-4.742h56.908c2.618 0 4.742 2.125 4.742 4.742v94.846c0 .735-.171 1.465-.498 2.12l-14.227 28.454c-.805 1.608-2.446 2.623-4.244 2.623zm-25.523-9.485h22.592l12.415-24.831v-88.985h-47.423v88.985z"/><path d="m182.579 189.693h-75.877c-2.618 0-4.742-2.125-4.742-4.742 0-2.618 2.125-4.742 4.742-4.742h75.877c2.618 0 4.742 2.125 4.742 4.742s-2.124 4.742-4.742 4.742z"/><path d="m182.579 208.662h-75.877c-2.618 0-4.742-2.125-4.742-4.742s2.125-4.742 4.742-4.742h75.877c2.618 0 4.742 2.125 4.742 4.742s-2.124 4.742-4.742 4.742z"/><path d="m182.579 227.631h-75.877c-2.618 0-4.742-2.125-4.742-4.742s2.125-4.742 4.742-4.742h75.877c2.618 0 4.742 2.125 4.742 4.742s-2.124 4.742-4.742 4.742z"/><path d="m182.579 246.6h-75.877c-2.618 0-4.742-2.125-4.742-4.742s2.125-4.742 4.742-4.742h75.877c2.618 0 4.742 2.125 4.742 4.742s-2.124 4.742-4.742 4.742z"/><path d="m182.579 265.57h-75.877c-2.618 0-4.742-2.125-4.742-4.742s2.125-4.742 4.742-4.742h75.877c2.618 0 4.742 2.125 4.742 4.742s-2.124 4.742-4.742 4.742z"/></svg>